<svg xmlns="http://www.w3.org/2000/svg" viewBox="0 0 750 471" width="750" height="471">
  <rect fill="#006FCF" width="750" height="471" rx="40" ry="40"/>
  <path fill="#fff" d="M0 221.73l36.57-85.34h42.01l20.81 47.87V136.39h52.13l10.53 30.13 10.43-30.13h175.85v16.91c0 0 11.23-16.91 38.54-16.91h59.32l20.92 48.39v-48.39h44.54l18.15 27.24V136.39h44.84v99.24h-44.84l-17.44-26.33v26.33h-54.76l-8.19-19.57h-21.63l-8.14 19.57h-42.07c-23.13 0-35.96-17.16-35.96-17.16v17.16h-63.41l-10.32-24.06-10.32 24.06H40.45L32.22 216h-21.6L2.48 235.63H0v-13.9zm75.6-66.21h-24l-16.97 40.11L17.6 155.52H-8.52v62.11l-24.21-62.11h-20.35l-25.65 62.11h15.87l8.05-19.25h26.29l8.05 19.25h31.38v-46.21l21.26 46.21h13.53l21.07-46.14v46.14h16.83v-62.11zm-97.62 32.3l8.95-21.4 8.95 21.4h-17.9zm178.5-32.3h-57.17v62.11h56.93v-13.91h-40.1v-10.56h39.19v-13.45h-39.19v-10.28h40.34v-13.91zm43.66 0h-18.63l-23.37 62.11h17.34l4.15-11.7h25.39l4.15 11.7h17.77l-23.69-62.11h-3.11zm-14.56 37.6l7.95-22.34 7.95 22.34h-15.9zm68.76-37.6h-16.83v62.11h16.83v-22.06l6.65-7.57 19.74 29.63h20.98l-28.25-41.2 26.48-20.91h-21.59l-22.01 24.46v-24.46zm81.42 0h-16.83v62.11h16.83v-22.06l6.65-7.57 19.74 29.63h20.98l-28.25-41.2 26.48-20.91h-21.59l-22.01 24.46v-24.46z" transform="translate(225 90)"/>
</svg>