<svg xmlns="http://www.w3.org/2000/svg" viewBox="0 0 1000 324" width="1000" height="324">
  <path fill="#1A1F71" d="M433.3 318.8L469.5 5.2h57.6l-36.3 313.6h-57.5zM727.3 11.5c-11.4-4.4-29.3-9.2-51.6-9.2-57 0-97.1 29.5-97.4 71.8-.4 31.3 28.7 48.7 50.6 59.2 22.5 10.7 30.1 17.5 30 27.1-.1 14.6-18 21.3-34.6 21.3-23.1 0-35.4-3.3-54.4-11.4l-7.5-3.5-8.1 48.9c13.5 6.1 38.4 11.4 64.4 11.6 60.6 0 100-29.1 100.5-74.3.2-24.8-15.2-43.6-48.5-59.2-20.2-10.1-32.6-16.8-32.5-27 0-9 10.5-18.7 33.2-18.7 18.9-.3 32.7 3.9 43.4 8.4l5.2 2.5 7.8-47.5zM823.8 206.2c4.8-12.5 22.9-60.7 22.9-60.7-.3.6 4.7-12.5 7.6-20.7l3.9 18.7s11 52 13.3 62.7h-47.7zm71.2-199.9h-44.6c-13.8 0-24.1 3.9-30.2 18l-85.6 199.5h60.5s9.9-26.8 12.1-32.6h73.9c1.7 7.6 7 32.6 7 32.6h53.5l-46.6-217.5zM285.4 5.2l-56.5 214-6-29.9c-10.5-34.6-43.2-72.2-79.8-90.9l51.6 189.4 61 .1 90.7-282.7h-61z"/>
  <path fill="#F9A533" d="M146.9 5.2H53.5l-.7 4.1c72.4 18 120.3 61.5 140.2 113.8L172.5 24c-3.5-13.9-13.7-18.3-25.6-18.8z"/>
</svg>